<svg width="67" height="11" viewBox="0 0 67 11" fill="none" xmlns="http://www.w3.org/2000/svg">
<path d="M0.25202 8.71192C0.10802 8.63192 0.0280195 8.54392 0.0120195 8.44792C0.00401956 8.35192 0.0600196 8.18392 0.18002 7.94392C0.30002 7.70392 0.48802 7.33192 0.74402 6.82792C0.93602 6.46792 1.06402 6.18792 1.12802 5.98792C1.20002 5.77992 1.24002 5.63192 1.24802 5.54392C1.25602 5.45592 1.26002 5.39992 1.26002 5.37592C1.24402 5.30392 1.25202 5.24792 1.28402 5.20792C1.31602 5.15992 1.36802 5.11992 1.44002 5.08792C1.48002 5.04792 1.57202 4.97592 1.71602 4.87192C1.86002 4.76792 1.97202 4.64392 2.05202 4.49992C2.12402 4.33192 2.20402 4.15992 2.29202 3.98392C2.38802 3.80792 2.51202 3.58792 2.66402 3.32392C2.81602 3.05192 3.02002 2.69992 3.27602 2.26792C3.43602 1.98792 3.62402 1.67192 3.84002 1.31992C4.06402 0.967918 4.28402 0.647918 4.50002 0.359917C4.58802 0.247917 4.68002 0.159917 4.77602 0.0959172C4.87202 0.0319176 4.95602 -8.22544e-05 5.02802 -8.22544e-05C5.20402 -8.22544e-05 5.38002 0.0479176 5.55602 0.143917C5.73202 0.231918 5.88802 0.343918 6.02402 0.479917C6.16002 0.615917 6.25202 0.743917 6.30002 0.863917C6.34002 0.927917 6.35602 1.06392 6.34802 1.27192C6.34002 1.47992 6.32402 1.73192 6.30002 2.02792C6.27602 2.32392 6.24802 2.63992 6.21602 2.97592C6.19202 3.30392 6.15602 3.69192 6.10802 4.13992C6.06002 4.58792 6.01202 5.05592 5.96402 5.54392C5.92402 6.03192 5.89202 6.50392 5.86802 6.95992C5.84402 7.40792 5.84402 7.79992 5.86802 8.13592C5.87602 8.20792 5.87602 8.27592 5.86802 8.33992C5.86002 8.40392 5.85602 8.45592 5.85602 8.49592C5.80802 8.54392 5.70402 8.56392 5.54402 8.55592C5.38402 8.55592 5.22802 8.53192 5.07602 8.48392C4.92402 8.43592 4.84002 8.37592 4.82402 8.30392C4.80002 8.27992 4.78402 8.25992 4.77602 8.24392C4.76802 8.22792 4.76802 8.15192 4.77602 8.01592C4.78402 7.87192 4.79602 7.61192 4.81202 7.23592L4.87202 5.39992L4.71602 5.41192C4.64402 5.41192 4.51202 5.41992 4.32002 5.43592C4.13602 5.45192 3.93202 5.47592 3.70802 5.50792C3.49202 5.53192 3.29202 5.55992 3.10802 5.59192C2.92402 5.61592 2.79602 5.63992 2.72402 5.66392C2.65202 5.66392 2.56402 5.71192 2.46002 5.80792C2.36402 5.90392 2.27202 6.02792 2.18402 6.17992C2.15202 6.29192 2.09202 6.41192 2.00402 6.53992C1.92402 6.65992 1.88402 6.73992 1.88402 6.77992C1.82802 6.81992 1.78002 6.86792 1.74002 6.92392C1.70802 6.97992 1.69202 7.00792 1.69202 7.00792C1.69202 7.05592 1.65602 7.17592 1.58402 7.36792C1.51202 7.55192 1.42402 7.75992 1.32002 7.99192C1.21602 8.21592 1.10802 8.41192 0.99602 8.57992L0.67202 9.03592L0.25202 8.71192ZM3.12002 4.58392C3.12002 4.58392 3.16402 4.57592 3.25202 4.55992C3.34002 4.54392 3.44402 4.52792 3.56402 4.51192C3.69202 4.48792 3.80402 4.47592 3.90002 4.47592C4.08402 4.42792 4.23602 4.39192 4.35602 4.36792C4.48402 4.34392 4.58802 4.33192 4.66802 4.33192C4.74802 4.32392 4.81202 4.33192 4.86002 4.35592C4.89202 4.39592 4.92002 4.41992 4.94402 4.42792C4.97602 4.43592 4.99202 4.43992 4.99202 4.43992C5.00002 4.42392 5.01602 4.33992 5.04002 4.18792C5.06402 4.03592 5.09202 3.84792 5.12402 3.62392C5.15602 3.39992 5.18802 3.16792 5.22002 2.92792C5.25202 2.67992 5.28002 2.45192 5.30402 2.24392C5.32802 2.02792 5.34402 1.85992 5.35202 1.73992C5.36002 1.58792 5.35602 1.45192 5.34002 1.33192C5.32402 1.20392 5.31602 1.13992 5.31602 1.13992C5.26802 1.13992 5.17602 1.22792 5.04002 1.40392C4.91202 1.57192 4.76002 1.79992 4.58402 2.08792C4.41602 2.36792 4.24802 2.67192 4.08002 2.99992C4.00002 3.15192 3.92402 3.27192 3.85202 3.35992C3.78802 3.44792 3.73602 3.49192 3.69602 3.49192C3.68002 3.50792 3.63602 3.57192 3.56402 3.68392C3.50002 3.78792 3.42802 3.90792 3.34802 4.04392C3.27602 4.17192 3.21202 4.29192 3.15602 4.40392C3.10802 4.50792 3.09602 4.56792 3.12002 4.58392ZM7.19974 7.99192C7.12774 7.93592 7.04774 7.86392 6.95974 7.77592C6.87974 7.68792 6.85174 7.56392 6.87574 7.40392C6.89974 7.17992 6.93174 6.98392 6.97174 6.81592C7.01174 6.63992 7.05974 6.43992 7.11574 6.21592C7.13174 6.11992 7.17174 5.95592 7.23574 5.72392C7.30774 5.49192 7.39174 5.23992 7.48774 4.96792C7.58374 4.69592 7.68374 4.43992 7.78774 4.19992C7.89174 3.95192 7.98374 3.76792 8.06374 3.64792C8.15174 3.56792 8.27974 3.52792 8.44774 3.52792C8.62374 3.52792 8.74374 3.55992 8.80774 3.62392C8.89574 3.69592 8.92374 3.82392 8.89174 4.00792C8.85974 4.18392 8.74774 4.45992 8.55574 4.83592C8.51574 4.93192 8.46374 5.03592 8.39974 5.14792C8.34374 5.25192 8.30374 5.33992 8.27974 5.41192C8.25574 5.47592 8.26374 5.50392 8.30374 5.49592C8.35174 5.40792 8.43974 5.30792 8.56774 5.19592C8.69574 5.07592 8.83174 4.95992 8.97574 4.84792C9.11974 4.73592 9.25574 4.63592 9.38374 4.54792C9.51174 4.45992 9.59974 4.40392 9.64774 4.37992C9.71174 4.33992 9.78374 4.30792 9.86374 4.28392C9.95174 4.25192 10.0117 4.22792 10.0437 4.21192C10.2277 4.12392 10.4277 4.09192 10.6437 4.11592C10.8677 4.13192 11.0037 4.19992 11.0517 4.31992C11.0597 4.38392 11.0837 4.43192 11.1237 4.46392C11.1717 4.49592 11.1957 4.51192 11.1957 4.51192C11.2277 4.51192 11.2437 4.52392 11.2437 4.54792C11.2517 4.57192 11.2557 4.58392 11.2557 4.58392C11.2557 4.63992 11.1997 4.71992 11.0877 4.82392C10.9837 4.92792 10.8677 4.98392 10.7397 4.99192C10.6357 4.99992 10.5437 5.01992 10.4637 5.05192C10.3837 5.08392 10.2877 5.12392 10.1757 5.17192C9.87174 5.34792 9.59574 5.50392 9.34774 5.63992C9.10774 5.77592 8.85974 5.98392 8.60374 6.26392C8.54774 6.32792 8.48774 6.38792 8.42374 6.44392C8.35974 6.49992 8.29574 6.57992 8.23174 6.68392C8.19174 6.72392 8.15174 6.81192 8.11174 6.94792C8.07174 7.08392 8.03574 7.21592 8.00374 7.34392C7.97974 7.46392 7.96774 7.53592 7.96774 7.55992C7.96774 7.55992 7.95574 7.59992 7.93174 7.67992C7.90774 7.75192 7.86774 7.82392 7.81174 7.89592C7.71574 8.02392 7.61974 8.10392 7.52374 8.13592C7.43574 8.16792 7.32774 8.11992 7.19974 7.99192ZM11.428 10.5359C11.316 10.5679 11.2 10.5399 11.08 10.4519C10.968 10.3639 10.88 10.2439 10.816 10.0919C10.76 9.93992 10.76 9.78392 10.816 9.62392C10.832 9.57592 10.856 9.49592 10.888 9.38392C10.92 9.27992 10.94 9.18792 10.948 9.10792C10.956 9.05192 10.98 8.95592 11.02 8.81992C11.06 8.69192 11.104 8.56392 11.152 8.43592C11.208 8.30792 11.252 8.21592 11.284 8.15992C11.332 8.07992 11.364 7.98792 11.38 7.88392C11.404 7.77992 11.416 7.69992 11.416 7.64392C11.432 7.58792 11.452 7.52392 11.476 7.45192C11.508 7.37992 11.54 7.32392 11.572 7.28392C11.588 7.21992 11.612 7.15192 11.644 7.07992C11.676 6.99992 11.712 6.93192 11.752 6.87592C11.768 6.81992 11.78 6.75192 11.788 6.67192C11.804 6.59192 11.828 6.54792 11.86 6.53992C11.868 6.50792 11.872 6.47592 11.872 6.44392C11.88 6.41192 11.896 6.36792 11.92 6.31192C11.936 6.22392 11.972 6.09592 12.028 5.92792C12.084 5.75992 12.152 5.57592 12.232 5.37592C12.32 5.14392 12.38 4.94392 12.412 4.77592C12.444 4.59992 12.4 4.48792 12.28 4.43992C12.216 4.40792 12.176 4.33592 12.16 4.22392C12.144 4.10392 12.152 3.98392 12.184 3.86392C12.216 3.74392 12.264 3.67192 12.328 3.64792C12.4 3.61592 12.488 3.59592 12.592 3.58792C12.696 3.57992 12.788 3.57992 12.868 3.58792C12.956 3.58792 12.996 3.59592 12.988 3.61192C12.988 3.65192 13.008 3.67592 13.048 3.68392C13.064 3.65992 13.096 3.69592 13.144 3.79192C13.2 3.87992 13.252 3.97992 13.3 4.09192C13.348 4.20392 13.372 4.27992 13.372 4.31992C13.356 4.35192 13.348 4.37192 13.348 4.37992C13.348 4.37992 13.364 4.37992 13.396 4.37992C13.396 4.37992 13.44 4.35992 13.528 4.31992C13.616 4.27192 13.708 4.21992 13.804 4.16392C13.908 4.09992 13.976 4.05192 14.008 4.01992C14.008 4.01992 14.028 4.01192 14.068 3.99592C14.116 3.97192 14.156 3.94392 14.188 3.91192C14.348 3.84792 14.52 3.83592 14.704 3.87592C14.896 3.91592 15.048 3.98792 15.16 4.09192C15.32 4.29192 15.44 4.53992 15.52 4.83592C15.608 5.13192 15.596 5.41992 15.484 5.69992C15.468 5.73992 15.432 5.80792 15.376 5.90392C15.328 5.99192 15.28 6.07592 15.232 6.15592C15.184 6.22792 15.16 6.26392 15.16 6.26392C14.976 6.55192 14.772 6.79192 14.548 6.98392C14.332 7.17592 14.096 7.34392 13.84 7.48792C13.76 7.54392 13.648 7.59592 13.504 7.64392C13.368 7.69192 13.24 7.72792 13.12 7.75192C13.008 7.77592 12.94 7.77992 12.916 7.76392C12.828 7.69992 12.748 7.56392 12.676 7.35592C12.636 7.45992 12.596 7.56392 12.556 7.66792C12.524 7.76392 12.504 7.82792 12.496 7.85992C12.488 7.91592 12.48 7.96392 12.472 8.00392C12.464 8.03592 12.444 8.06392 12.412 8.08792C12.412 8.08792 12.408 8.10392 12.4 8.13592C12.392 8.16792 12.364 8.21592 12.316 8.27992C12.236 8.51192 12.172 8.69192 12.124 8.81992C12.076 8.95592 12.036 9.06392 12.004 9.14392C11.98 9.23192 11.956 9.32392 11.932 9.41992C11.916 9.63592 11.864 9.86392 11.776 10.1039C11.696 10.3439 11.58 10.4879 11.428 10.5359ZM13.216 6.63592C13.248 6.61992 13.304 6.59192 13.384 6.55192C13.472 6.51192 13.568 6.46392 13.672 6.40792C13.776 6.34392 13.872 6.28392 13.96 6.22792C14.056 6.16392 14.124 6.10792 14.164 6.05992C14.228 5.98792 14.264 5.93192 14.272 5.89192C14.28 5.84392 14.3 5.76792 14.332 5.66392C14.356 5.59992 14.384 5.52792 14.416 5.44792C14.448 5.36792 14.476 5.29192 14.5 5.21992C14.532 5.15592 14.544 5.09192 14.536 5.02792C14.536 4.95592 14.512 4.89592 14.464 4.84792C14.432 4.83992 14.356 4.85192 14.236 4.88392C14.124 4.91592 13.992 4.97992 13.84 5.07592C13.696 5.17192 13.552 5.31192 13.408 5.49592C13.24 5.71192 13.128 5.90792 13.072 6.08392C13.016 6.25192 13.004 6.38792 13.036 6.49192C13.068 6.58792 13.128 6.63592 13.216 6.63592ZM16.5991 8.06392C16.5671 7.99992 16.4951 7.93592 16.3831 7.87192C16.2791 7.80792 16.2271 7.75992 16.2271 7.72792C16.2271 7.69592 16.2071 7.64792 16.1671 7.58392C16.1351 7.51192 16.1031 7.45992 16.0711 7.42792C16.0311 7.37992 16.0431 7.26392 16.1071 7.07992C16.1711 6.88792 16.2671 6.65592 16.3951 6.38392C16.5231 6.11192 16.6631 5.83592 16.8151 5.55592C16.8791 5.49192 16.9431 5.40792 17.0071 5.30392C17.0711 5.19992 17.1191 5.13192 17.1511 5.09992C17.1511 5.06792 17.1631 5.03992 17.1871 5.01592C17.2111 4.98392 17.2391 4.96792 17.2711 4.96792L17.3671 4.77592C17.3831 4.74392 17.4311 4.67992 17.5111 4.58392C17.5991 4.48792 17.7031 4.38392 17.8231 4.27192C17.9431 4.15192 18.0631 4.03992 18.1831 3.93592C18.3111 3.83192 18.4151 3.75592 18.4951 3.70792C18.6631 3.59592 18.8351 3.54392 19.0111 3.55192C19.1951 3.55992 19.3511 3.61592 19.4791 3.71992C19.5031 3.74392 19.5551 3.79192 19.6351 3.86392C19.7231 3.93592 19.8191 4.01592 19.9231 4.10392C20.0351 4.19192 20.1311 4.27192 20.2111 4.34392L20.6551 4.73992L20.4511 5.33992C20.3471 5.65992 20.3191 5.93992 20.3671 6.17992C20.4151 6.41992 20.4911 6.62792 20.5951 6.80392C20.6351 6.89192 20.6871 6.95992 20.7511 7.00792C20.8231 7.05592 20.9151 7.08792 21.0271 7.10392C21.0911 7.11192 21.1511 7.13592 21.2071 7.17592C21.2631 7.21592 21.2911 7.27992 21.2911 7.36792C21.2911 7.55992 21.2551 7.69992 21.1831 7.78792C21.1191 7.86792 21.0471 7.91592 20.9671 7.93192C20.7031 7.96392 20.4511 7.93592 20.2111 7.84792C19.9711 7.75992 19.7551 7.53192 19.5631 7.16392C19.5311 7.11592 19.4871 7.02792 19.4311 6.89992C19.3831 6.76392 19.3551 6.67592 19.3471 6.63592C19.3151 6.67592 19.2711 6.72792 19.2151 6.79192C19.1671 6.84792 19.1191 6.89992 19.0711 6.94792C18.5031 7.52392 18.0151 7.89992 17.6071 8.07592C17.2071 8.24392 16.8711 8.23992 16.5991 8.06392ZM17.2591 7.06792C17.3151 7.07592 17.4031 7.04792 17.5231 6.98392C17.6431 6.91192 17.8031 6.79592 18.0031 6.63592C18.2751 6.40392 18.4991 6.21192 18.6751 6.05992C18.8511 5.90792 19.0231 5.71192 19.1911 5.47192L19.4551 5.03992C19.3751 4.85592 19.3031 4.73592 19.2391 4.67992C19.1751 4.62392 19.1111 4.59592 19.0471 4.59592C18.9431 4.59592 18.8191 4.66392 18.6751 4.79992C18.5311 4.92792 18.3671 5.11992 18.1831 5.37592C18.0071 5.62392 17.8071 5.93592 17.5831 6.31192C17.4791 6.48792 17.3991 6.65992 17.3431 6.82792C17.2871 6.98792 17.2591 7.06792 17.2591 7.06792ZM22.5306 7.90792C22.4986 7.90792 22.4226 7.87992 22.3026 7.82392C22.1826 7.75992 22.1066 7.71192 22.0746 7.67992C22.0186 7.61592 21.9826 7.54792 21.9666 7.47592C21.9506 7.39592 21.9426 7.24392 21.9426 7.01992C21.9426 6.76392 21.9946 6.47592 22.0986 6.15592C22.2026 5.82792 22.3786 5.39192 22.6266 4.84792L23.1186 3.85192C23.1586 3.79592 23.1946 3.74792 23.2266 3.70792C23.2586 3.65992 23.2946 3.61592 23.3346 3.57592C23.3506 3.57592 23.3706 3.57592 23.3946 3.57592C23.4266 3.57592 23.4506 3.57992 23.4666 3.58792C23.5386 3.59592 23.6506 3.63992 23.8026 3.71992C23.9626 3.79992 24.0586 3.91992 24.0906 4.07992C24.0906 4.18392 24.0746 4.30792 24.0426 4.45192C24.0106 4.58792 23.9146 4.76792 23.7546 4.99192C23.6906 5.07192 23.6266 5.18792 23.5626 5.33992C23.5066 5.49192 23.4546 5.63592 23.4066 5.77192C23.3986 5.78792 23.3746 5.82792 23.3346 5.89192C23.3026 5.94792 23.2706 6.00792 23.2386 6.07192C23.2066 6.12792 23.1906 6.16392 23.1906 6.17992L23.1426 6.28792L23.6586 5.78392C24.0186 5.42392 24.3226 5.16792 24.5706 5.01592C24.8186 4.86392 25.0266 4.79992 25.1946 4.82392C25.3706 4.84792 25.5106 4.94792 25.6146 5.12392C25.6706 5.20392 25.7106 5.29192 25.7346 5.38792C25.7586 5.47592 25.7746 5.57992 25.7826 5.69992C25.7906 5.81992 25.7866 5.97192 25.7706 6.15592V6.83992C25.9226 6.79992 26.0386 6.76792 26.1186 6.74392C26.1986 6.71192 26.2786 6.68392 26.3586 6.65992C26.4226 6.64392 26.4866 6.62792 26.5506 6.61192C26.6226 6.59592 26.7106 6.58392 26.8146 6.57592C26.8066 6.67992 26.7626 6.80792 26.6826 6.95992C26.6026 7.11192 26.5026 7.26392 26.3826 7.41592C26.2706 7.56792 26.1466 7.69592 26.0106 7.79992C25.8826 7.90392 25.7626 7.95592 25.6506 7.95592C25.5466 7.95592 25.4266 7.92392 25.2906 7.85992C25.1546 7.78792 25.0386 7.65192 24.9426 7.45192C24.9106 7.34792 24.8786 7.22792 24.8466 7.09192C24.8146 6.95592 24.7986 6.81192 24.7986 6.65992V6.13192C24.7986 6.08392 24.7946 6.05192 24.7866 6.03592C24.7866 6.01192 24.7826 5.99992 24.7746 5.99992C24.7426 5.99992 24.6386 6.08392 24.4626 6.25192C24.2946 6.41992 24.1226 6.59592 23.9466 6.77992C23.5786 7.16392 23.2706 7.44792 23.0226 7.63192C22.7826 7.81592 22.6186 7.90792 22.5306 7.90792ZM35.5406 9.35992C35.5086 9.35992 35.4486 9.34392 35.3606 9.31192C35.2806 9.28792 35.2206 9.25192 35.1806 9.20392C35.1246 9.14792 35.0846 9.07992 35.0606 8.99992C35.0446 8.91992 35.0366 8.84392 35.0366 8.77192C35.0366 8.68392 35.0366 8.55592 35.0366 8.38792C35.0366 8.22792 35.0286 8.07192 35.0126 7.91992C35.0126 7.68792 35.0086 7.47192 35.0006 7.27192C34.9926 7.07192 35.0046 6.93592 35.0366 6.86392C35.0126 6.75192 35.0086 6.63192 35.0246 6.50392C35.0486 6.36792 35.0606 6.26392 35.0606 6.19192L35.0126 5.86792H34.3646C34.2126 5.89192 33.9686 5.89592 33.6326 5.87992C33.2966 5.85592 32.9206 5.83192 32.5046 5.80792L32.3486 6.05992C32.3246 6.09192 32.2806 6.15592 32.2166 6.25192C32.1526 6.34792 32.0886 6.47992 32.0246 6.64792C31.9846 6.75192 31.9286 6.88392 31.8566 7.04392C31.7926 7.19592 31.7206 7.34792 31.6406 7.49992C31.5686 7.65192 31.4966 7.77992 31.4246 7.88392C31.2966 8.13192 31.1806 8.29992 31.0766 8.38792C30.9806 8.48392 30.9126 8.53192 30.8726 8.53192C30.8006 8.53192 30.7446 8.52792 30.7046 8.51992C30.6646 8.51192 30.6046 8.47992 30.5246 8.42392C30.3646 8.35192 30.2606 8.23992 30.2126 8.08792C30.1726 7.93592 30.2326 7.74392 30.3926 7.51192C30.4326 7.45592 30.4686 7.39992 30.5006 7.34392C30.5326 7.28792 30.5486 7.25992 30.5486 7.25992C30.5486 7.24392 30.5806 7.16392 30.6446 7.01992C30.7166 6.86792 30.8006 6.69992 30.8966 6.51592C30.9926 6.32392 31.0846 6.15592 31.1726 6.01192C31.2606 5.85992 31.3246 5.77592 31.3646 5.75992C31.5086 5.59992 31.4966 5.44792 31.3286 5.30392C31.2726 5.27992 31.2366 5.21192 31.2206 5.09992C31.2046 4.98792 31.2326 4.88392 31.3046 4.78792C31.3766 4.68392 31.5126 4.63992 31.7126 4.65592C31.7926 4.61592 31.8486 4.58792 31.8806 4.57192C31.9206 4.55592 31.9406 4.53192 31.9406 4.49992C31.9406 4.48392 31.9566 4.43592 31.9886 4.35592C32.0286 4.27592 32.0766 4.18392 32.1326 4.07992C32.1886 3.96792 32.2486 3.85992 32.3126 3.75592C32.3766 3.65192 32.4366 3.56392 32.4926 3.49192C32.5806 3.26792 32.6486 3.11992 32.6966 3.04792C32.7446 2.96792 32.7846 2.89192 32.8166 2.81992C32.8566 2.77992 32.9126 2.69192 32.9846 2.55592C33.0566 2.41992 33.1326 2.28792 33.2126 2.15992C33.3246 2.04792 33.4246 1.92792 33.5126 1.79992C33.6086 1.66392 33.6926 1.55192 33.7646 1.46392C33.8046 1.37592 33.8606 1.27992 33.9326 1.17592C34.0126 1.07192 34.0926 0.963917 34.1726 0.851918C34.3246 0.683918 34.5046 0.547918 34.7126 0.443918C34.9286 0.339918 35.1166 0.323918 35.2766 0.395918C35.4606 0.475918 35.6326 0.635918 35.7926 0.875918C35.9526 1.10792 36.0446 1.39192 36.0686 1.72792C36.0926 1.91192 36.1166 2.11992 36.1406 2.35192C36.1726 2.57592 36.1686 2.74392 36.1286 2.85592C36.1286 2.99992 36.1246 3.17592 36.1166 3.38392C36.1166 3.59192 36.1286 3.78792 36.1526 3.97192C36.1206 4.12392 36.1086 4.29592 36.1166 4.48792C36.1246 4.67192 36.1286 4.79992 36.1286 4.87192C36.1286 4.94392 36.1246 5.05992 36.1166 5.21992C36.1086 5.37192 36.1046 5.50392 36.1046 5.61592C36.0966 5.91992 36.0886 6.17192 36.0806 6.37192C36.0806 6.57192 36.0806 6.76392 36.0806 6.94792C36.0886 7.12392 36.0926 7.33192 36.0926 7.57192C36.1086 8.20392 36.0646 8.65192 35.9606 8.91592C35.8646 9.18792 35.7246 9.33592 35.5406 9.35992ZM33.1166 4.87192C33.1166 4.87192 33.1966 4.86392 33.3566 4.84792C33.5166 4.82392 33.7086 4.81592 33.9326 4.82392C34.1966 4.79992 34.4126 4.79592 34.5806 4.81192C34.7486 4.81992 34.8486 4.81592 34.8806 4.79992C34.9686 4.80792 35.0286 4.77192 35.0606 4.69192C35.0926 4.61192 35.1086 4.50792 35.1086 4.37992C35.0926 4.20392 35.0766 3.98392 35.0606 3.71992C35.0526 3.44792 35.0446 3.17592 35.0366 2.90392C35.0286 2.62392 35.0286 2.38392 35.0366 2.18392C35.0366 2.03192 35.0246 1.87992 35.0006 1.72792C34.9766 1.56792 34.9646 1.48792 34.9646 1.48792C34.9486 1.46392 34.9006 1.50392 34.8206 1.60792C34.7486 1.70392 34.6646 1.82392 34.5686 1.96792C34.4726 2.11192 34.3846 2.25592 34.3046 2.39992C34.2246 2.53592 34.1646 2.63592 34.1246 2.69992C34.0926 2.73992 34.0326 2.84392 33.9446 3.01192C33.8566 3.17992 33.7566 3.35992 33.6446 3.55192C33.3486 4.02392 33.1686 4.35192 33.1046 4.53592C33.0406 4.71992 33.0446 4.83192 33.1166 4.87192ZM38.5376 10.7159C38.3136 10.8039 38.0776 10.7879 37.8296 10.6679C37.5896 10.5559 37.3816 10.3759 37.2056 10.1279C37.1736 10.0799 37.1256 9.99192 37.0616 9.86392C36.9976 9.74392 36.9336 9.61192 36.8696 9.46792C36.8136 9.32392 36.7696 9.19992 36.7376 9.09592C36.7136 8.99192 36.7136 8.93192 36.7376 8.91592C36.7696 8.82792 36.8416 8.77592 36.9536 8.75992C37.0656 8.74392 37.1776 8.74792 37.2896 8.77192C37.4016 8.80392 37.4656 8.84392 37.4816 8.89192C37.5056 8.94792 37.5296 9.00392 37.5536 9.05992C37.5776 9.12392 37.6056 9.17992 37.6376 9.22792C37.6776 9.28392 37.7136 9.33192 37.7456 9.37192C37.8336 9.50792 37.9296 9.59992 38.0336 9.64792C38.1376 9.70392 38.2176 9.71192 38.2736 9.67192C38.4096 9.56792 38.5096 9.44392 38.5736 9.29992C38.6456 9.16392 38.7376 8.91992 38.8496 8.56792C38.9376 8.27192 39.0136 8.01592 39.0776 7.79992C39.1416 7.58392 39.2096 7.38392 39.2816 7.19992C39.3056 7.10392 39.3336 7.02392 39.3656 6.95992C39.4056 6.88792 39.4416 6.83592 39.4736 6.80392H39.5456C39.3696 6.91592 39.2216 7.02792 39.1016 7.13992C38.9816 7.25192 38.8176 7.35192 38.6096 7.43992C38.5616 7.49592 38.4416 7.53192 38.2496 7.54792C38.0656 7.55592 37.8856 7.53192 37.7096 7.47592C37.5976 7.41192 37.5056 7.34792 37.4336 7.28392C37.3696 7.21192 37.3136 7.13192 37.2656 7.04392C37.2256 6.95592 37.1816 6.85192 37.1336 6.73192C37.0776 6.61192 37.0696 6.41592 37.1096 6.14392C37.1496 5.87192 37.2216 5.59992 37.3256 5.32792C37.4216 5.12792 37.5616 4.91192 37.7456 4.67992C37.9296 4.44792 38.1256 4.23992 38.3336 4.05592C38.5416 3.86392 38.7296 3.74392 38.8976 3.69592C38.9616 3.66392 39.0736 3.62792 39.2336 3.58792C39.3936 3.53992 39.5456 3.53592 39.6896 3.57592C39.8256 3.59192 39.9296 3.62392 40.0016 3.67192C40.0736 3.71192 40.1896 3.79992 40.3496 3.93592C40.4536 4.03992 40.5816 4.17592 40.7336 4.34392C40.8856 4.50392 40.9816 4.63992 41.0216 4.75192C41.0776 4.87192 41.0896 5.00392 41.0576 5.14792C41.0256 5.28392 40.9696 5.40392 40.8896 5.50792C40.8176 5.61192 40.7416 5.71592 40.6616 5.81992C40.5816 5.92392 40.5216 6.06792 40.4816 6.25192C40.4416 6.49192 40.3656 6.76392 40.2536 7.06792C40.1416 7.36392 40.0536 7.63992 39.9896 7.89592L39.7976 8.63992C39.5976 9.31992 39.3776 9.81192 39.1376 10.1159C38.8976 10.4279 38.6976 10.6279 38.5376 10.7159ZM38.2856 6.58792C38.4456 6.57992 38.5816 6.56392 38.6936 6.53992C38.8136 6.50792 38.9256 6.44392 39.0296 6.34792C39.1336 6.24392 39.2536 6.08792 39.3896 5.87992C39.5256 5.68792 39.6216 5.51192 39.6776 5.35192C39.7336 5.19192 39.7536 5.01192 39.7376 4.81192C39.7296 4.68392 39.6936 4.59992 39.6296 4.55992C39.5656 4.51992 39.4816 4.50792 39.3776 4.52392C39.2256 4.54792 39.0896 4.61192 38.9696 4.71592C38.8496 4.81192 38.7096 4.96392 38.5496 5.17192C38.4296 5.33192 38.3296 5.52392 38.2496 5.74792C38.1696 5.98792 38.1336 6.17992 38.1416 6.32392C38.1576 6.46792 38.2056 6.55592 38.2856 6.58792ZM42.7406 8.06392C42.7166 8.07192 42.6646 8.06792 42.5846 8.05192C42.5126 8.03592 42.4366 8.01592 42.3566 7.99192C42.2846 7.96792 42.2406 7.94792 42.2246 7.93192C42.1926 7.89992 42.1486 7.84392 42.0926 7.76392C42.0366 7.67592 42.0046 7.55992 41.9966 7.41592C41.9966 7.27192 42.0646 7.09992 42.2006 6.89992C42.2406 6.81992 42.2886 6.69992 42.3446 6.53992C42.4006 6.37992 42.4566 6.21192 42.5126 6.03592C42.5766 5.85192 42.6326 5.68792 42.6806 5.54392C42.7366 5.39992 42.7766 5.29992 42.8006 5.24392C42.8166 5.10792 42.8086 5.01192 42.7766 4.95592C42.7526 4.89192 42.6846 4.85592 42.5726 4.84792C42.4926 4.84792 42.4286 4.81992 42.3806 4.76392C42.3406 4.70792 42.3206 4.60792 42.3206 4.46392C42.3366 4.35192 42.3646 4.25592 42.4046 4.17592C42.4526 4.08792 42.5166 4.01592 42.5966 3.95992C42.6766 3.91992 42.7766 3.89192 42.8966 3.87592C43.0246 3.85992 43.1486 3.85592 43.2686 3.86392C43.3886 3.87192 43.4726 3.89992 43.5206 3.94792C43.5766 3.97992 43.6206 4.05192 43.6526 4.16392C43.6926 4.26792 43.7246 4.37592 43.7486 4.48792C43.7726 4.59992 43.7886 4.68392 43.7966 4.73992C43.8766 4.67592 43.9646 4.58792 44.0606 4.47592C44.1646 4.35592 44.2686 4.24392 44.3726 4.13992C44.5006 4.05192 44.6526 3.96392 44.8286 3.87592C45.0046 3.77992 45.1326 3.73192 45.2126 3.73192C45.3006 3.73192 45.4086 3.77592 45.5366 3.86392C45.6646 3.94392 45.7446 4.01592 45.7766 4.07992C45.8566 4.21592 45.9126 4.35992 45.9446 4.51192C45.9846 4.65592 45.9606 4.78392 45.8726 4.89592C45.7926 4.99992 45.6806 5.10392 45.5366 5.20792C45.3926 5.30392 45.2126 5.33192 44.9966 5.29192C44.9486 5.27592 44.8966 5.21592 44.8406 5.11192C44.7926 5.00792 44.7646 4.93192 44.7566 4.88392C44.7566 4.85992 44.7206 4.88392 44.6486 4.95592C44.5846 5.01992 44.5046 5.09992 44.4086 5.19592C44.3206 5.29192 44.2366 5.37992 44.1566 5.45992C44.0206 5.62792 43.8766 5.85592 43.7246 6.14392C43.5726 6.43192 43.3926 6.77992 43.1846 7.18792C43.0886 7.38792 43.0086 7.57992 42.9446 7.76392C42.8806 7.93992 42.8126 8.03992 42.7406 8.06392ZM47.4129 8.14792C47.3489 8.16392 47.2649 8.17192 47.1609 8.17192C47.0569 8.16392 46.9649 8.15192 46.8849 8.13592C46.8129 8.11192 46.7769 8.08792 46.7769 8.06392C46.7769 8.02392 46.7569 8.00392 46.7169 8.00392C46.7169 8.00392 46.6729 7.97192 46.5849 7.90792C46.4969 7.83592 46.4169 7.78392 46.3449 7.75192C46.2729 7.63992 46.2249 7.51192 46.2009 7.36792C46.1849 7.21592 46.2329 6.95192 46.3449 6.57592C46.3529 6.31992 46.4249 6.05192 46.5609 5.77192C46.6969 5.48392 46.8689 5.20392 47.0769 4.93192C47.2849 4.65992 47.5009 4.41992 47.7249 4.21192C47.9489 3.99592 48.1489 3.83592 48.3249 3.73192C48.4369 3.61992 48.5849 3.55992 48.7689 3.55192C48.9609 3.54392 49.1289 3.57992 49.2729 3.65992C49.3529 3.69992 49.4409 3.77992 49.5369 3.89992C49.6329 4.01992 49.7249 4.14792 49.8129 4.28392C49.9009 4.41192 49.9689 4.52792 50.0169 4.63192C50.0409 4.71992 50.0609 4.79992 50.0769 4.87192C50.1009 4.93592 50.1169 5.01592 50.1249 5.11192C50.1329 5.20792 50.1249 5.35192 50.1009 5.54392C50.0609 5.68792 50.0249 5.83592 49.9929 5.98792C49.9689 6.13192 49.9569 6.27992 49.9569 6.43192C49.9409 6.58392 49.9569 6.69192 50.0049 6.75592C50.0609 6.81992 50.1409 6.82392 50.2449 6.76792C50.3409 6.71992 50.4409 6.71592 50.5449 6.75592C50.6489 6.78792 50.7209 6.85192 50.7609 6.94792C50.8089 7.03592 50.7969 7.15192 50.7249 7.29592C50.6769 7.39992 50.6009 7.49992 50.4969 7.59592C50.3929 7.69192 50.2769 7.77192 50.1489 7.83592C50.0209 7.89192 49.8969 7.91992 49.7769 7.91992C49.6889 7.91992 49.6009 7.88792 49.5129 7.82392C49.4249 7.75192 49.3449 7.65592 49.2729 7.53592C49.2009 7.41592 49.1409 7.28392 49.0929 7.13992L49.0209 6.86392L48.5889 7.25992C48.4849 7.37192 48.3809 7.47592 48.2769 7.57192C48.1809 7.65992 48.1209 7.72392 48.0969 7.76392C48.0569 7.83592 47.9769 7.89992 47.8569 7.95592C47.7449 8.01192 47.5969 8.07592 47.4129 8.14792ZM47.7369 6.99592C47.8729 6.91592 47.9889 6.81992 48.0849 6.70792C48.1889 6.59592 48.2889 6.47192 48.3849 6.33592C48.4809 6.19192 48.5849 6.03992 48.6969 5.87992C48.8329 5.69592 48.9289 5.54792 48.9849 5.43592C49.0489 5.32392 49.0969 5.20392 49.1289 5.07592C49.0969 4.98792 49.0529 4.89592 48.9969 4.79992C48.9409 4.69592 48.8849 4.63992 48.8289 4.63192C48.7169 4.63192 48.5809 4.69992 48.4209 4.83592C48.2689 4.97192 48.1009 5.16792 47.9169 5.42392C47.8849 5.46392 47.8449 5.52792 47.7969 5.61592C47.7489 5.70392 47.7009 5.78792 47.6529 5.86792C47.6129 5.93992 47.5849 5.98792 47.5689 6.01192C47.5449 6.04392 47.5089 6.11992 47.4609 6.23992C47.4209 6.35192 47.3849 6.46792 47.3529 6.58792C47.3209 6.69992 47.3049 6.77992 47.3049 6.82792C47.3049 6.87592 47.3089 6.92792 47.3169 6.98392C47.3329 7.03992 47.3729 7.07592 47.4369 7.09192C47.5009 7.10792 47.6009 7.07592 47.7369 6.99592ZM55.0587 8.14792C54.9947 8.15592 54.8787 8.11992 54.7107 8.03992C54.5507 7.95992 54.4227 7.86792 54.3267 7.76392C54.2547 7.65192 54.1947 7.51592 54.1467 7.35592C54.1067 7.19592 54.0787 6.97992 54.0627 6.70792C53.8307 7.05992 53.6307 7.32392 53.4627 7.49992C53.2947 7.67592 53.1427 7.80392 53.0067 7.88392C52.8787 7.95592 52.7507 8.01192 52.6227 8.05192C52.5507 8.07592 52.4547 8.04392 52.3347 7.95592C52.2147 7.86792 52.1387 7.79592 52.1067 7.73992C52.0747 7.68392 52.0387 7.59592 51.9987 7.47592C51.9667 7.34792 51.9547 7.21592 51.9627 7.07992C51.9467 6.91192 51.9307 6.71992 51.9147 6.50392C51.9067 6.28792 51.8987 6.07592 51.8907 5.86792C51.8907 5.65192 51.8947 5.45992 51.9027 5.29192C51.9107 5.12392 51.9267 5.01192 51.9507 4.95592C51.9427 4.92392 51.9387 4.89192 51.9387 4.85992C51.9387 4.82792 51.9387 4.81192 51.9387 4.81192C51.9147 4.77192 51.9027 4.68392 51.9027 4.54792C51.9027 4.40392 51.9107 4.26392 51.9267 4.12792C51.9507 3.99192 51.9667 3.90792 51.9747 3.87592C51.9907 3.84392 52.0547 3.80392 52.1667 3.75592C52.2867 3.69992 52.3667 3.66792 52.4067 3.65992C52.5267 3.68392 52.5907 3.73192 52.5987 3.80392C52.6227 3.81992 52.6467 3.84392 52.6707 3.87592C52.6947 3.89992 52.7227 3.90792 52.7547 3.89992C52.7787 3.91592 52.8107 4.00792 52.8507 4.17592C52.8987 4.33592 52.9227 4.49992 52.9227 4.66792C52.9147 4.74792 52.9147 4.82392 52.9227 4.89592C52.9307 4.96792 52.9267 5.03192 52.9107 5.08792C52.9107 5.12792 52.9147 5.21592 52.9227 5.35192C52.9307 5.47992 52.9387 5.61192 52.9467 5.74792C52.9467 5.85192 52.9427 5.95992 52.9347 6.07192C52.9267 6.18392 52.9227 6.29592 52.9227 6.40792C52.9467 6.56792 52.9507 6.67192 52.9347 6.71992C52.9187 6.75992 52.9347 6.76392 52.9827 6.73192C53.0307 6.71592 53.0987 6.64392 53.1867 6.51592C53.2747 6.37992 53.4027 6.16792 53.5707 5.87992C53.6987 5.68792 53.7947 5.52392 53.8587 5.38792C53.9307 5.24392 53.9987 5.13192 54.0627 5.05192C54.0867 4.85992 54.1107 4.68792 54.1347 4.53592C54.1667 4.38392 54.1867 4.27592 54.1947 4.21192C54.3067 4.09992 54.4347 4.01992 54.5787 3.97192C54.7307 3.92392 54.8347 3.95592 54.8907 4.06792C54.9707 4.09992 55.0507 4.16392 55.1307 4.25992C55.2107 4.35592 55.2427 4.44792 55.2267 4.53592C55.1947 4.64792 55.1627 4.75592 55.1307 4.85992C55.1067 4.96392 55.0787 5.07192 55.0467 5.18392C55.0147 5.29592 54.9867 5.45192 54.9627 5.65192C54.9387 5.85192 54.9227 6.05192 54.9147 6.25192C54.9147 6.44392 54.9307 6.59992 54.9627 6.71992C54.9707 6.79192 54.9947 6.83992 55.0347 6.86392C55.0747 6.87992 55.1547 6.83592 55.2747 6.73192C55.3947 6.60392 55.5107 6.45992 55.6227 6.29992C55.7347 6.13992 55.8267 5.99592 55.8987 5.86792C55.9787 5.73192 56.0187 5.64392 56.0187 5.60392C56.0187 5.53992 56.0347 5.47192 56.0667 5.39992C56.0987 5.31992 56.1387 5.25992 56.1867 5.21992C56.2267 5.17192 56.2507 5.12392 56.2587 5.07592C56.2667 5.01992 56.2827 4.96392 56.3067 4.90792C56.3147 4.89192 56.3267 4.86792 56.3427 4.83592C56.3587 4.80392 56.3707 4.77192 56.3787 4.73992C56.3547 4.68392 56.3707 4.63592 56.4267 4.59592C56.4907 4.54792 56.5307 4.49992 56.5467 4.45192C56.5627 4.34792 56.6307 4.26792 56.7507 4.21192C56.8787 4.15592 57.0027 4.14792 57.1227 4.18792C57.2507 4.22792 57.3187 4.34792 57.3267 4.54792C57.3267 4.64392 57.3107 4.78392 57.2787 4.96792C57.2467 5.15192 57.1947 5.34792 57.1227 5.55592C57.0507 5.76392 56.9547 5.95192 56.8347 6.11992C56.8027 6.18392 56.7707 6.24792 56.7387 6.31192C56.7147 6.37592 56.6707 6.45992 56.6067 6.56392C56.5427 6.66792 56.4307 6.81992 56.2707 7.01992C56.2227 7.08392 56.1667 7.15192 56.1027 7.22392C56.0467 7.28792 55.9867 7.34792 55.9227 7.40392C55.7867 7.57992 55.6347 7.74792 55.4667 7.90792C55.3067 8.05992 55.1707 8.13992 55.0587 8.14792ZM58.654 8.09992C58.558 8.12392 58.45 8.09592 58.33 8.01592C58.21 7.93592 58.102 7.83592 58.006 7.71592C57.91 7.59592 57.85 7.48792 57.826 7.39192C57.794 7.22392 57.802 7.01992 57.85 6.77992C57.906 6.53192 57.998 6.27192 58.126 5.99992C58.254 5.71992 58.414 5.44792 58.606 5.18392C58.798 4.91192 59.014 4.66792 59.254 4.45192C59.494 4.23592 59.754 4.06792 60.034 3.94792C60.154 3.88392 60.238 3.84392 60.286 3.82792C60.334 3.80392 60.382 3.80392 60.43 3.82792C60.478 3.84392 60.562 3.88392 60.682 3.94792C60.794 3.97992 60.906 4.01992 61.018 4.06792C61.138 4.10792 61.242 4.18792 61.33 4.30792C61.394 4.42792 61.442 4.54792 61.474 4.66792C61.506 4.78792 61.534 4.92392 61.558 5.07592C61.622 5.27592 61.646 5.40792 61.63 5.47192C61.614 5.52792 61.59 5.57192 61.558 5.60392C61.494 5.68392 61.478 5.72392 61.51 5.72392C61.51 5.72392 61.506 5.73992 61.498 5.77192C61.498 5.79592 61.482 5.83592 61.45 5.89192C61.394 6.06792 61.35 6.23592 61.318 6.39592C61.294 6.54792 61.298 6.68392 61.33 6.80392C61.394 6.97992 61.478 7.08392 61.582 7.11592C61.694 7.14792 61.838 7.07592 62.014 6.89992C62.102 6.83592 62.202 6.79592 62.314 6.77992C62.426 6.75592 62.482 6.77592 62.482 6.83992C62.482 6.83992 62.494 6.85192 62.518 6.87592C62.542 6.89192 62.57 6.89992 62.602 6.89992C62.642 6.89992 62.658 6.93992 62.65 7.01992C62.642 7.09192 62.626 7.17592 62.602 7.27192C62.578 7.36792 62.546 7.44792 62.506 7.51192C62.386 7.63192 62.326 7.71192 62.326 7.75192C62.326 7.75192 62.31 7.76792 62.278 7.79992C62.254 7.82392 62.21 7.86392 62.146 7.91992C62.002 8.00792 61.818 8.05192 61.594 8.05192C61.378 8.05192 61.21 8.00792 61.09 7.91992C60.97 7.83192 60.85 7.72392 60.73 7.59592C60.618 7.46792 60.546 7.34792 60.514 7.23592L60.454 7.11592L60.106 7.34392C60.018 7.43192 59.954 7.49992 59.914 7.54792C59.874 7.58792 59.838 7.62392 59.806 7.65592C59.782 7.68792 59.754 7.71592 59.722 7.73992C59.698 7.76392 59.67 7.77592 59.638 7.77592C59.606 7.77592 59.578 7.77592 59.554 7.77592C59.53 7.77592 59.518 7.77592 59.518 7.77592C59.518 7.80792 59.462 7.85192 59.35 7.90792C59.238 7.95592 59.114 7.99992 58.978 8.03992C58.842 8.07992 58.734 8.09992 58.654 8.09992ZM58.906 7.09192C58.954 7.09192 59.026 7.06392 59.122 7.00792C59.226 6.94392 59.338 6.86792 59.458 6.77992C59.578 6.69192 59.686 6.60392 59.782 6.51592C59.886 6.42792 59.962 6.35592 60.01 6.29992C60.042 6.26792 60.078 6.21592 60.118 6.14392C60.166 6.07192 60.218 6.00792 60.274 5.95192C60.458 5.74392 60.574 5.57992 60.622 5.45992C60.67 5.33192 60.65 5.19592 60.562 5.05192C60.53 4.96392 60.49 4.91592 60.442 4.90792C60.394 4.89992 60.294 4.92792 60.142 4.99192C60.046 5.04792 59.942 5.13992 59.83 5.26792C59.718 5.39592 59.602 5.53992 59.482 5.69992C59.37 5.85992 59.266 6.02392 59.17 6.19192C59.074 6.35992 58.994 6.51192 58.93 6.64792C58.874 6.78392 58.846 6.89192 58.846 6.97192C58.846 7.00392 58.854 7.03192 58.87 7.05592C58.894 7.07992 58.906 7.09192 58.906 7.09192ZM63.7173 8.44792C63.5653 8.48792 63.4293 8.44392 63.3093 8.31592C63.1893 8.19592 63.1053 8.01592 63.0573 7.77592C63.0093 7.53592 63.0173 7.26792 63.0813 6.97192C63.1213 6.87592 63.1533 6.78392 63.1773 6.69592C63.2013 6.59992 63.2133 6.52392 63.2133 6.46792C63.2293 6.38792 63.2613 6.27192 63.3093 6.11992C63.3573 5.95992 63.4093 5.79592 63.4653 5.62792C63.5213 5.45992 63.5733 5.31192 63.6213 5.18392C63.6773 5.04792 63.7133 4.96392 63.7293 4.93192C63.7613 4.93192 63.7893 4.90392 63.8133 4.84792C63.8373 4.79192 63.8493 4.73592 63.8493 4.67992C63.8493 4.61592 63.8613 4.54392 63.8853 4.46392C63.9173 4.38392 63.9493 4.32792 63.9813 4.29592C63.9813 4.25592 63.9893 4.21192 64.0053 4.16392C64.0293 4.10792 64.0413 4.06392 64.0413 4.03192C64.0413 3.99992 64.0493 3.96792 64.0653 3.93592C64.0893 3.90392 64.1013 3.87192 64.1013 3.83992C64.1573 3.73592 64.2293 3.57192 64.3173 3.34792C64.4133 3.11592 64.5133 2.85992 64.6173 2.57992C64.7293 2.29992 64.8333 2.02392 64.9293 1.75192C65.0253 1.47992 65.1013 1.25192 65.1573 1.06792C65.2213 0.875918 65.2533 0.759918 65.2533 0.719918C65.2533 0.655918 65.2773 0.595918 65.3253 0.539918C65.3733 0.483918 65.4293 0.455918 65.4933 0.455918C65.5173 0.431917 65.5733 0.415917 65.6613 0.407917C65.7493 0.391918 65.8093 0.383918 65.8413 0.383918C65.8413 0.383918 65.8573 0.399918 65.8893 0.431918C65.9213 0.463917 65.9693 0.511917 66.0333 0.575917C66.0973 0.631918 66.1573 0.695918 66.2133 0.767918C66.2773 0.839918 66.3093 0.923918 66.3093 1.01992C66.3093 1.12392 66.2933 1.22392 66.2613 1.31992C66.2373 1.41592 66.1893 1.54792 66.1173 1.71592C66.0453 1.87592 65.9333 2.11592 65.7813 2.43592C65.7173 2.59592 65.6493 2.74792 65.5773 2.89192C65.5053 3.02792 65.4693 3.11192 65.4693 3.14392C65.4693 3.17592 65.4533 3.22392 65.4213 3.28792C65.3973 3.35192 65.3693 3.43192 65.3373 3.52792C65.3053 3.59192 65.2613 3.68792 65.2053 3.81592C65.1493 3.93592 65.0893 4.06792 65.0253 4.21192C64.9693 4.34792 64.9213 4.46792 64.8813 4.57192C64.8413 4.66792 64.8213 4.72392 64.8213 4.73992C64.8213 4.77192 64.8173 4.80392 64.8093 4.83592C64.8093 4.86792 64.7933 4.89992 64.7613 4.93192C64.7293 4.93192 64.7093 4.95592 64.7013 5.00392C64.7013 5.04392 64.7013 5.06392 64.7013 5.06392C64.7013 5.14392 64.6373 5.35592 64.5093 5.69992C64.3813 6.13992 64.2613 6.54392 64.1493 6.91192C64.0453 7.27992 63.9933 7.57592 63.9933 7.79992C63.9933 7.99192 63.9613 8.13992 63.8973 8.24392C63.8413 8.34792 63.7813 8.41592 63.7173 8.44792Z" fill="#C3C0C0"/>
</svg>
